<svg xmlns="http://www.w3.org/2000/svg" xmlns:xlink="http://www.w3.org/1999/xlink" width="24" height="24" viewBox="0 0 24 24">
    <defs>
        <path id="puoqngccga" d="M11.706 17.516c.673.38 1.023.98 1.138 1.736.064.426.144.85.23 1.271.16.782.734 1.144 1.52.976.314-.067.607-.195.966-.344-.252.353-.509.59-.85.734-.097.041-.21.056-.287.141h-.762c-.02-.047-.066-.044-.105-.058-.405-.145-.76-.352-1.003-.73-.306-.478-.573-.973-.787-1.5-.274-.675-.753-1.112-1.507-1.19-.396-.042-.905.242-1.016.571-.167.495.246 1.027.798 1.09.463.054.736-.352.684-.699-.05-.335-.552-.57-.832-.373-.169.117-.15.407.037.502.11.057.226.107.356.167-.358.067-.625-.004-.73-.197-.117-.216-.076-.43.06-.62.174-.244.531-.337.848-.241.467.142.691.438.704.93.012.486-.307.953-.753 1.122-.322.122-.625.063-.92-.075-.374-.173-.707-.408-.966-.727-.523-.641-1.228-.926-2.01-1.076-.124-.024-.25-.036-.376-.054-.049-.006-.112.006-.133-.05-.021-.057.03-.092.067-.125.84-.762 1.776-1.358 2.903-1.58.949-.188 1.872-.085 2.726.399zm-3.008-.144c-.736.172-1.4.573-2 1.054-.094.076-.201.142-.26.276l.116.027c.83.167 1.58.475 2.137 1.154.272.33.621.57 1.024.726.708.274 1.45-.434 1.206-1.13.02.48-.178.8-.573.905-.38.1-.764.002-1.041-.313-.27-.307-.37-.679-.218-1.062.156-.394.506-.588.912-.633.775-.084 1.33.296 1.745.91.243.358.33.795.558 1.162.26.419.443.902.909 1.16.402.22.815.343 1.257.118-.11 0-.22.003-.329 0-.594-.018-1.114-.443-1.231-1.023-.1-.487-.185-.978-.268-1.468-.086-.508-.282-.956-.684-1.292-.975-.813-2.116-.838-3.26-.571zm6.532-4.432c.483.279.965.559 1.45.832.618.347 1.155.786 1.619 1.325.476.552.642 1.199.628 1.902-.019.904-.27 1.734-.864 2.435-.398.47-.9.797-1.477 1.017.783-.877.57-1.801.156-2.726-.316-.706-.809-1.306-1.228-1.949-.384-.59-.687-1.2-.748-1.912-.023-.266.002-.523.082-.774.089-.28.134-.293.382-.15zm-.247.415c-.071.688.083 1.329.452 1.91.403.636.837 1.25 1.226 1.893.51.844.845 1.733.504 2.787.087-.055.148-.087.2-.128 1.176-.94 1.537-2.18 1.283-3.618-.125-.705-.642-1.173-1.153-1.62-.66-.58-1.47-.923-2.215-1.37-.24-.143-.269-.127-.297.146zM.678.063c.675.699 1.328 1.419 1.956 2.162l1.637 1.8c1.21 1.334 2.42 2.668 3.628 4.003.325.36.393.695.178 1.077-.228.404-.541.712-1.046.742-.117.007-.234.035-.349.061-.834.187-.97.336-1.093 1.177-.09.61-.2 1.22-.442 1.79-.141.333-.338.64-.402 1.006-.044.253-.052.506-.015.757.028.196.124.355.288.488.413.335.788.723 1.222 1.027.575.402.475 1.3-.002 1.729-.733.658-1.623.948-2.556 1.15-.12.027-.181-.025-.235-.13-.272-.536-.55-1.067-.828-1.599-.486-.932-.362-1.833.17-2.692.236-.379.508-.742.807-1.073.631-.703.894-1.557 1.081-2.449.082-.386.101-.79.32-1.138.045-.071.067-.157.14-.209l.037-.005-.038.005c.417-.407.307-.82.02-1.24-.022-.032-.024-.078-.034-.118l-.004-.004c.028-.056-.014-.127.053-.175.003-.002.001-.005 0-.01-.068.048-.03.126-.053.185-.172-.149-.233-.367-.339-.555-.46-.823-.91-1.652-1.365-2.482.111-.043.132.04.164.09.551.87 1.14 1.713 1.67 2.596.09.15.226.27.285.442.078.11.163.216.231.331.4.674 1.272.447 1.6.093.177-.19.06-.368-.06-.52-.353-.452-.72-.894-1.08-1.34L2.541 2.49c-.02-.026-.032-.06-.048-.089L.614.121.678.064zm2.515 15.673c-.065.082.025.12.066.162.117.12.16.24.016.366-.1.086-.036.148.028.206.084.075.176.079.28.03.154-.07.23-.188.25-.35.004-.211-.226-.464-.437-.488-.083-.01-.154.013-.203.074zm10.783-3.21c.183.144.258.302.327.466l.016.06c.005.012.012.022.02.03.423.987-.024 2.088-1.06 2.636-.36.19-.739.27-1.142.288-.76.035-1.51.152-2.264.242-.194.088-.399.12-.61.137.096-.1.197-.18.33-.205.59-.336 1.243-.461 1.905-.546.376-.048.754-.07 1.118-.195.966-.332 1.489-1.074 1.463-2.094l-.006-.355-.097-.464zm-1.335-3.394c.406.315.852.557 1.358.652.563.106 1.132.19 1.7.257.804.095 1.575.273 2.295.663.728.394 1.177.986 1.408 1.772.11.37.15.753.252 1.123v.66c-.096.102-.067.239-.094.357-.102.443-.305.83-.617 1.235.031-.323.095-.585.014-.852-.169-.56-.547-.944-1.03-1.234-.575-.344-1.213-.555-1.82-.828-.74-.332-1.498-.62-2.196-1.04-1.03-.622-1.531-1.514-1.465-2.72.002-.04-.022-.077.026-.108.088-.058.123.028.169.063zm.002.444c.015.386.12.747.294 1.092.308.608.853.951 1.423 1.254.963.513 1.99.89 2.988 1.327.83.363 1.559.825 1.844 1.846.057-.154.089-.23.113-.307.174-.564.14-1.13.047-1.704-.202-1.238-.871-2.066-2.063-2.496-.604-.218-1.23-.288-1.853-.39-.912-.148-1.86-.162-2.66-.726-.127-.09-.137.01-.133.104zm-2.965.937c.289.511.133.856-.443 1.088-.215.088-.46.109-.698.102-.395-.013-.623-.253-.62-.645.001-.417.297-.787.735-.92.353-.107.839.045 1.026.375zm-.805-.3c-.236 0-.451.187-.446.387.005.194.199.35.443.357.266.007.48-.165.475-.38-.005-.193-.225-.363-.472-.363zm.223-5.752c.76.361 1.403.877 1.979 1.48.124.128.237.16.398.137.893-.132 1.786-.127 2.671.058.574.12 1.12.316 1.625.622.298.181.474.445.518.773.05.358.061.721-.1 1.07-.141.305-.088.555.102.623.186.066.364-.068.49-.373.106-.258.188-.524.236-.8.024-.143.08-.178.192-.061.681.71 1.126 1.533 1.231 2.523l.036.33c-.077-.008-.1-.07-.12-.123-.275-.748-.882-1.035-1.606-1.133-.735-.1-1.48-.12-2.219-.187-.89-.08-1.644-.439-2.297-1.016-.604-.534-1.044-1.217-1.555-1.834-.475-.574-.932-1.16-1.579-1.559-.7-.43-1.451-.678-2.283-.663.78-.266 1.539-.22 2.281.133zm8.06 3.837c-.114.401-.198.772-.48 1.068.54.087 1.029.242 1.446.588-.192-.621-.429-1.208-.966-1.656zm-8.16-3.633c.113.156.302.221.458.33.663.464 1.093 1.14 1.612 1.735.416.478.767 1.01 1.225 1.452 1.047 1.01 2.38 1.101 3.75 1.135-.158-.247-.175-.504-.05-.753.089-.18.132-.37.138-.56.015-.506-.096-.89-.573-1.142-1.34-.708-2.758-.794-4.215-.563-.169.027-.261-.003-.339-.114-.211-.302-.492-.533-.776-.757-.327-.259-.649-.532-1.038-.694l-.193-.07zm7.522.21c.071.112.02.196 0 .287-.02.088-.013.184-.012.277.004.466.089.903.44 1.248.044.042.079.093.114.143l.053.076c.226.17.399.385.564.607l-.057.067-.664-.528-.076-.005.025.02c-.024.022-.052.038-.084.048.003-.035.002-.076.02-.083l.019.013c-.043-.04-.04-.004-.043.025-.039.36-.02.725-.104 1.081-.038.165-.092.322-.209.539 0-.447-.02-.826.005-1.202.032-.475-.176-.805-.541-1.074-.257-.19-.537-.342-.793-.553l1.122.326c-.015-.46.019-.891.221-1.311zm-8.933-.018c.78.206 1.244.717 1.402 1.497.095.472.19.941.36 1.393.065.174.153.336.26.49.03.045.161.075.079.174-.06.072-.13.122-.239.112-.28-.026-.518-.156-.735-.316-.69-.507-1.094-1.2-1.288-2.025-.135-.422-.142-.858-.108-1.29.018-.228.173-.05.269-.035z"/>
    </defs>
    <g fill="none" fill-rule="evenodd">
        <g>
            <g>
                <g>
                    <g>
                        <g>
                            <g>
                                <g transform="translate(-110 -16) translate(102 8) translate(8 8) translate(1) translate(.386 .937)">
                                    <mask id="1thyl1wmnb" fill="#fff">
                                        <use xlink:href="#puoqngccga"/>
                                    </mask>
                                    <g fill="#FFF" fill-opacity=".54" mask="url(#1thyl1wmnb)">
                                        <path d="M0 0H24V24H0z" transform="translate(-1.386 -.937)"/>
                                    </g>
                                </g>
                            </g>
                        </g>
                    </g>
                </g>
            </g>
        </g>
    </g>
</svg>
